<svg width="14" height="15" viewBox="0 0 14 15" fill="none" xmlns="http://www.w3.org/2000/svg">
<path d="M9.31706 3.31669V2.78336C9.31706 2.03662 9.31706 1.66325 9.17173 1.37804C9.0439 1.12715 8.83993 0.92318 8.58904 0.795349C8.30383 0.650024 7.93046 0.650024 7.18372 0.650024H6.11706C5.37032 0.650024 4.99695 0.650024 4.71174 0.795349C4.46085 0.92318 4.25688 1.12715 4.12905 1.37804C3.98372 1.66325 3.98372 2.03662 3.98372 2.78336V3.31669M5.31706 6.98336V10.3167M7.98372 6.98336V10.3167M0.650391 3.31669H12.6504M11.3171 3.31669V10.7834C11.3171 11.9035 11.3171 12.4635 11.0991 12.8913C10.9073 13.2677 10.6014 13.5736 10.225 13.7654C9.79722 13.9834 9.23716 13.9834 8.11706 13.9834H5.18372C4.06362 13.9834 3.50357 13.9834 3.07574 13.7654C2.69942 13.5736 2.39346 13.2677 2.20171 12.8913C1.98372 12.4635 1.98372 11.9035 1.98372 10.7834V3.31669" stroke="#242424" stroke-width="1.3" stroke-linecap="round" stroke-linejoin="round"/>
</svg>
